Coordinates
version=1
nRows=21
nColumns=19
inDegrees=yes

Units are S.I. units (second, meters, Newtons, ...)
If the header above contains a line with 'inDegrees', this indicates whether rotational values are in degrees (yes) or radians (no).

endheader
time	pelvis_tilt	pelvis_list	pelvis_rotation	pelvis_tx	pelvis_ty	pelvis_tz	hip_flexion_r	hip_adduction_r	hip_rotation_r	knee_angle_r	knee_angle_r_beta	ankle_angle_r	hip_flexion_l	hip_adduction_l	hip_rotation_l	knee_angle_l	knee_angle_l_beta	ankle_angle_l
     15.14000000	    -14.22931813	     -7.24738789	     -0.53810589	      2.20533508	      0.93500284	      0.94581584	     39.26380580	      8.05098601	    -18.35220349	     16.44074355	      0.28694511	     12.22711377	    -11.54341402	    -11.17950407	     -2.65235199	     47.36539132	      0.82668203	    -17.11467179
     15.14666667	    -14.12893435	     -7.50956195	     -0.72344364	      2.20532326	      0.93032478	      0.94570489	     39.64452937	      7.88213563	    -19.31281302	     19.32196271	      0.33723187	     11.76053490	    -10.40266327	    -11.69413128	     -2.65380706	     51.62673155	      0.90105645	    -18.33678227
     15.15333333	    -13.25815647	     -7.99374015	     -1.05838055	      2.20560134	      0.92630081	      0.94569657	     39.10371024	      8.04372374	    -19.99783268	     22.31620703	      0.38949129	     11.24607662	    -10.22095203	    -12.44182032	     -3.08293872	     55.61645523	      0.97069026	    -19.70936645
     15.16000000	    -12.99972355	     -8.20411246	     -1.24100964	      2.20550546	      0.92147270	      0.94550042	     39.28250267	      7.78561507	    -20.46704816	     25.66697038	      0.44797314	     10.82361707	     -9.08751886	    -12.86183969	     -2.96164233	     59.76895119	      1.04316499	    -20.88382367
     15.16666667	    -12.02631221	     -8.65728251	     -1.60073577	      2.20561462	      0.91740209	      0.94550788	     38.57842095	      7.97799566	    -20.53369824	     28.93077881	      0.50493735	     10.60488182	     -8.86520801	    -13.54814182	     -3.30408359	     63.62265393	      1.11042479	    -21.96609367
     15.17333333	    -11.82161463	     -8.61057622	     -1.78563968	      2.20511405	      0.91265493	      0.94538147	     38.72873651	      7.60994504	    -20.26473371	     32.34298682	      0.56449161	     10.80329849	     -7.44357258	    -13.61640795	     -2.95317652	     67.60867846	      1.17999404	    -22.63090884
     15.18000000	    -10.91871149	     -8.90258263	     -2.05969123	      2.20476138	      0.90886991	      0.94546530	     37.95305130	      7.77326870	    -19.79445897	     35.45372818	      0.61878429	     11.35827219	     -6.87697960	    -14.12147675	     -3.03619538	     71.28643361	      1.24418298	    -23.10807371
     15.18666667	    -10.82805655	     -8.59335111	     -2.23832906	      2.20375915	      0.90457026	      0.94546840	     38.07001080	      7.38733258	    -18.88236041	     38.62055441	      0.67405583	     12.35223094	     -5.07141151	    -13.81458910	     -2.47135612	     75.01005303	      1.30917240	    -23.23661342
     15.19333333	    -10.44939278	     -8.43591535	     -2.39736350	      2.20271736	      0.90101215	      0.94559195	     37.67525206	      7.26432561	    -17.94422484	     41.41954228	      0.72290739	     13.73451626	     -3.53024180	    -13.73080109	     -2.05817117	     78.49749796	      1.37003979	    -23.11161162
     15.20000000	     -9.67051980	     -8.50744597	     -2.51769376	      2.20172804	      0.89835930	      0.94580401	     36.57998653	      7.44998489	    -17.09478977	     43.74526813	      0.76349896	     15.46844937	     -2.39102356	    -13.97331176	     -1.79526935	     81.71612599	      1.42621545	    -22.79186029
     15.20666667	     -9.93569535	     -7.88634576	     -2.45525896	      2.20007318	      0.89512456	      0.94581916	     36.57992395	      6.90160075	    -16.06215220	     46.02486531	      0.80328544	     17.38389891	      0.30155270	    -13.26995680	     -0.86505233	     84.93794977	      1.48244688	    -22.27617725
     15.21333333	     -9.27934511	     -7.77610488	     -2.42761207	      2.19888883	      0.89345943	      0.94597913	     35.17597684	      6.95579717	    -15.26629857	     47.60928779	      0.83093883	     19.54018843	      1.84713466	    -13.24449372	     -0.37319715	     87.69251900	      1.53052319	    -21.67268679
     15.22000000	     -9.44486679	     -7.12885946	     -1.95787270	      2.19709904	      0.89153337	      0.94554674	     34.55442550	      6.20742526	    -14.73086323	     49.02003290	      0.85556097	     21.51884752	      4.74922612	    -12.40475134	      0.86917631	     90.40660354	      1.57789290	    -21.04616178
     15.22666667	     -9.42197487	     -6.70997417	     -1.64295823	      2.19561973	      0.89034448	      0.94536867	     33.40676660	      5.83880557	    -14.19367701	     49.87192220	      0.87042925	     23.52479820	      7.34938433	    -11.88315495	      1.74405008	     92.72638313	      1.61838069	    -20.42861227
     15.23333333	     -9.32143720	     -6.28072221	     -1.21710944	      2.19425520	      0.88981722	      0.94499725	     31.92694941	      5.40005989	    -13.85119414	     50.31027222	      0.87807990	     25.33071950	      9.91368337	    -11.27193149	      2.64295797	     94.70372497	      1.65289181	    -19.81346740
     15.24000000	     -8.99004401	     -5.88822301	     -1.04373407	      2.19314720	      0.89011805	      0.94500247	     29.95144886	      5.20131074	    -13.28226248	     50.29738321	      0.87785494	     26.91719021	     12.08287195	    -10.80023267	      3.08776286	     96.23229205	      1.67957034	    -19.16234927
     15.24666667	     -9.03998542	     -5.39117358	     -0.27858687	      2.19198804	      0.89050308	      0.94414698	     28.21133215	      4.47877279	    -13.51741412	     50.01911873	      0.87299831	     28.07961434	     14.91592220	     -9.90343474	      4.16549767	     97.55653917	      1.70268282	    -18.54915038
     15.25333333	     -8.89757135	     -4.89440788	     -0.17831519	      2.19114379	      0.89169900	      0.94414469	     26.10582630	      4.22026094	    -12.95509228	     49.36853575	      0.86164350	     28.90555992	     17.20439552	     -9.28695235	      4.30387301	     98.34908854	      1.71651541	    -17.89276120
     15.26000000	     -8.85226980	     -4.38738712	      0.50583028	      2.19040457	      0.89315081	      0.94339979	     23.95214986	      3.55273450	    -13.29651720	     48.51439580	      0.84673594	     29.41124024	     19.73397702	     -8.37946495	      4.97448147	     98.88813000	      1.72592346	    -17.13871480
     15.26666667	     -8.91417836	     -3.80576860	      0.52568655	      2.18994039	      0.89508616	      0.94347809	     21.84246606	      3.18611413	    -12.83714034	     47.41313722	      0.82751535	     29.44397023	     22.05296919	     -7.70915195	      4.75425673	     98.93346864	      1.72671477	    -16.38307784
     15.27333333	     -9.02885034	     -3.18569124	      0.65110616	      2.18964941	      0.89735600	      0.94343441	     19.71726904	      2.70482469	    -12.54772964	     46.15558259	      0.80556688	     29.15205200	     24.35012374	     -6.97445347	      4.49397280	     98.63429606	      1.72149322	    -15.47897166
